<svg width="28" height="28" viewBox="0 0 28 28" fill="none" xmlns="http://www.w3.org/2000/svg">
<path d="M12.8335 19.8333H15.1668V15.1666H19.8335V12.8333H15.1668V8.16665H12.8335V12.8333H8.16683V15.1666H12.8335V19.8333ZM14.0002 25.6666C12.3863 25.6666 10.8696 25.3604 9.45016 24.7479C8.03072 24.1354 6.796 23.3041 5.746 22.2541C4.696 21.2041 3.86475 19.9694 3.25225 18.55C2.63975 17.1305 2.3335 15.6139 2.3335 14C2.3335 12.3861 2.63975 10.8694 3.25225 9.44998C3.86475 8.03054 4.696 6.79581 5.746 5.74581C6.796 4.69581 8.03072 3.86456 9.45016 3.25206C10.8696 2.63956 12.3863 2.33331 14.0002 2.33331C15.6141 2.33331 17.1307 2.63956 18.5502 3.25206C19.9696 3.86456 21.2043 4.69581 22.2543 5.74581C23.3043 6.79581 24.1356 8.03054 24.7481 9.44998C25.3606 10.8694 25.6668 12.3861 25.6668 14C25.6668 15.6139 25.3606 17.1305 24.7481 18.55C24.1356 19.9694 23.3043 21.2041 22.2543 22.2541C21.2043 23.3041 19.9696 24.1354 18.5502 24.7479C17.1307 25.3604 15.6141 25.6666 14.0002 25.6666ZM14.0002 23.3333C16.6057 23.3333 18.8127 22.4291 20.621 20.6208C22.4293 18.8125 23.3335 16.6055 23.3335 14C23.3335 11.3944 22.4293 9.18748 20.621 7.37915C18.8127 5.57081 16.6057 4.66665 14.0002 4.66665C11.3946 4.66665 9.18766 5.57081 7.37933 7.37915C5.571 9.18748 4.66683 11.3944 4.66683 14C4.66683 16.6055 5.571 18.8125 7.37933 20.6208C9.18766 22.4291 11.3946 23.3333 14.0002 23.3333Z" fill="#374151"/>
</svg>
