<?xml version="1.0" encoding="UTF-8"?>
<svg xmlns="http://www.w3.org/2000/svg" xmlns:xlink="http://www.w3.org/1999/xlink" width="34px" height="34px" viewBox="0 0 34 34" version="1.1">
<g id="surface1">
<path style=" stroke:none;fill-rule:nonzero;fill:rgb(0%,0%,0%);fill-opacity:1;" d="M 6.945312 13.414062 C 6.460938 13.707031 6.3125 14.339844 6.613281 14.8125 C 6.90625 15.292969 7.539062 15.445312 8.019531 15.144531 Z M 10.738281 13.464844 C 11.21875 13.167969 11.367188 12.539062 11.070312 12.066406 C 10.773438 11.582031 10.144531 11.433594 9.664062 11.734375 Z M 11.222656 12.601562 C 11.222656 12.035156 10.761719 11.574219 10.199219 11.574219 C 9.632812 11.574219 9.179688 12.035156 9.179688 12.601562 Z M 14.277344 24.820312 C 14.84375 24.820312 15.300781 24.367188 15.300781 23.800781 C 15.300781 23.238281 14.84375 22.777344 14.277344 22.777344 Z M 9.664062 11.734375 C 9.183594 12.023438 9.035156 12.65625 9.328125 13.136719 C 9.628906 13.613281 10.257812 13.761719 10.738281 13.464844 Z M 15.859375 9.097656 L 15.417969 8.179688 C 15.386719 8.195312 15.355469 8.214844 15.324219 8.234375 Z M 18.140625 9.097656 L 18.675781 8.234375 C 18.644531 8.214844 18.613281 8.195312 18.582031 8.179688 Z M 23.261719 13.464844 C 23.742188 13.761719 24.371094 13.613281 24.671875 13.136719 C 24.964844 12.65625 24.816406 12.023438 24.335938 11.734375 Z M 13.261719 23.800781 C 13.261719 24.367188 13.71875 24.820312 14.277344 24.820312 C 14.84375 24.820312 15.300781 24.367188 15.300781 23.800781 Z M 18.699219 23.800781 C 18.699219 24.367188 19.160156 24.820312 19.722656 24.820312 C 20.28125 24.820312 20.738281 24.367188 20.738281 23.800781 Z M 14.277344 22.777344 C 13.71875 22.777344 13.261719 23.238281 13.261719 23.800781 C 13.261719 24.367188 13.71875 24.820312 14.277344 24.820312 Z M 19.722656 24.820312 C 20.28125 24.820312 20.738281 24.367188 20.738281 23.800781 C 20.738281 23.238281 20.28125 22.777344 19.722656 22.777344 Z M 19.722656 22.777344 C 19.160156 22.777344 18.699219 23.238281 18.699219 23.800781 C 18.699219 24.367188 19.160156 24.820312 19.722656 24.820312 Z M 24.820312 12.601562 C 24.820312 12.035156 24.367188 11.574219 23.800781 11.574219 C 23.238281 11.574219 22.777344 12.035156 22.777344 12.601562 Z M 24.335938 11.734375 C 23.855469 11.433594 23.226562 11.582031 22.929688 12.066406 C 22.632812 12.539062 22.78125 13.167969 23.261719 13.464844 Z M 25.980469 15.144531 C 26.460938 15.445312 27.09375 15.292969 27.386719 14.8125 C 27.6875 14.339844 27.539062 13.707031 27.054688 13.414062 Z M 8.019531 15.144531 L 10.738281 13.464844 L 9.664062 11.734375 L 6.945312 13.414062 Z M 9.179688 12.601562 L 9.179688 21.761719 L 11.222656 21.761719 L 11.222656 12.601562 Z M 9.179688 21.761719 C 9.179688 22.597656 9.390625 23.457031 10.109375 24.066406 C 10.785156 24.640625 11.707031 24.820312 12.71875 24.820312 L 12.71875 22.777344 C 11.886719 22.777344 11.554688 22.617188 11.433594 22.511719 C 11.34375 22.441406 11.222656 22.277344 11.222656 21.761719 Z M 12.71875 24.820312 L 14.277344 24.820312 L 14.277344 22.777344 L 12.71875 22.777344 Z M 10.738281 13.464844 L 16.398438 9.964844 L 15.324219 8.234375 L 9.664062 11.734375 Z M 16.304688 10.015625 C 16.746094 9.808594 17.253906 9.808594 17.699219 10.015625 L 18.582031 8.179688 C 17.582031 7.699219 16.417969 7.699219 15.417969 8.179688 Z M 17.601562 9.964844 L 23.261719 13.464844 L 24.335938 11.734375 L 18.675781 8.234375 Z M 15.300781 23.800781 L 15.300781 22.441406 L 13.261719 22.441406 L 13.261719 23.800781 Z M 15.300781 22.441406 C 15.300781 21.5 16.058594 20.738281 17 20.738281 L 17 18.699219 C 14.9375 18.699219 13.261719 20.375 13.261719 22.441406 Z M 17 20.738281 C 17.941406 20.738281 18.699219 21.5 18.699219 22.441406 L 20.738281 22.441406 C 20.738281 20.375 19.0625 18.699219 17 18.699219 Z M 18.699219 22.441406 L 18.699219 23.800781 L 20.738281 23.800781 L 20.738281 22.441406 Z M 14.277344 24.820312 L 19.722656 24.820312 L 19.722656 22.777344 L 14.277344 22.777344 Z M 19.722656 24.820312 L 21.285156 24.820312 L 21.285156 22.777344 L 19.722656 22.777344 Z M 21.285156 24.820312 C 22.292969 24.820312 23.214844 24.640625 23.890625 24.066406 C 24.609375 23.457031 24.820312 22.597656 24.820312 21.761719 L 22.777344 21.761719 C 22.777344 22.277344 22.65625 22.441406 22.566406 22.511719 C 22.445312 22.617188 22.113281 22.777344 21.285156 22.777344 Z M 24.820312 21.761719 L 24.820312 12.601562 L 22.777344 12.601562 L 22.777344 21.761719 Z M 23.261719 13.464844 L 25.980469 15.144531 L 27.054688 13.414062 L 24.335938 11.734375 Z M 23.261719 13.464844 "/>
</g>
</svg>
