<svg width="24" height="24" viewBox="0 0 24 24" fill="none" xmlns="http://www.w3.org/2000/svg">
<path d="M4 18V6V19V18ZM4 20C3.45 20 2.97917 19.8042 2.5875 19.4125C2.19583 19.0208 2 18.55 2 18V6C2 5.45 2.19583 4.97917 2.5875 4.5875C2.97917 4.19583 3.45 4 4 4H10L12 6H20C20.55 6 21.0208 6.19583 21.4125 6.5875C21.8042 6.97917 22 7.45 22 8V13H20V8H11.175L9.175 6H4V18H9V20H4ZM14.6 22.6L11 19L14.6 15.4L16 16.825L13.825 19L16 21.175L14.6 22.6ZM19.4 22.6L18 21.175L20.175 19L18 16.825L19.4 15.4L23 19L19.4 22.6Z" fill="black"/>
</svg>
