<svg width="24" height="24" viewBox="0 0 24 24" fill="none" xmlns="http://www.w3.org/2000/svg">
<g clip-path="url(#clip0_252_140)">
<path d="M13 22L12.75 19H12.5C10.1333 19 8.125 18.175 6.475 16.525C4.825 14.875 4 12.8667 4 10.5C4 8.13333 4.825 6.125 6.475 4.475C8.125 2.825 10.1333 2 12.5 2C13.6833 2 14.7875 2.22083 15.8125 2.6625C16.8375 3.10417 17.7375 3.7125 18.5125 4.4875C19.2875 5.2625 19.8958 6.1625 20.3375 7.1875C20.7792 8.2125 21 9.31667 21 10.5C21 11.75 20.7958 12.95 20.3875 14.1C19.9792 15.25 19.4208 16.3167 18.7125 17.3C18.0042 18.2833 17.1625 19.175 16.1875 19.975C15.2125 20.775 14.15 21.45 13 22ZM15 18.35C16.1833 17.35 17.1458 16.1792 17.8875 14.8375C18.6292 13.4958 19 12.05 19 10.5C19 8.68333 18.3708 7.14583 17.1125 5.8875C15.8542 4.62917 14.3167 4 12.5 4C10.6833 4 9.14583 4.62917 7.8875 5.8875C6.62917 7.14583 6 8.68333 6 10.5C6 12.3167 6.62917 13.8542 7.8875 15.1125C9.14583 16.3708 10.6833 17 12.5 17H15V18.35ZM12.475 15.975C12.7583 15.975 13 15.875 13.2 15.675C13.4 15.475 13.5 15.2333 13.5 14.95C13.5 14.6667 13.4 14.425 13.2 14.225C13 14.025 12.7583 13.925 12.475 13.925C12.1917 13.925 11.95 14.025 11.75 14.225C11.55 14.425 11.45 14.6667 11.45 14.95C11.45 15.2333 11.55 15.475 11.75 15.675C11.95 15.875 12.1917 15.975 12.475 15.975ZM11.75 12.8H13.25C13.25 12.3 13.3 11.95 13.4 11.75C13.5 11.55 13.8167 11.1833 14.35 10.65C14.65 10.35 14.9 10.025 15.1 9.675C15.3 9.325 15.4 8.95 15.4 8.55C15.4 7.7 15.1125 7.0625 14.5375 6.6375C13.9625 6.2125 13.2833 6 12.5 6C11.7667 6 11.15 6.20417 10.65 6.6125C10.15 7.02083 9.8 7.51667 9.6 8.1L11 8.65C11.0833 8.36667 11.2417 8.0875 11.475 7.8125C11.7083 7.5375 12.05 7.4 12.5 7.4C12.95 7.4 13.2875 7.525 13.5125 7.775C13.7375 8.025 13.85 8.3 13.85 8.6C13.85 8.88333 13.7667 9.1375 13.6 9.3625C13.4333 9.5875 13.2333 9.81667 13 10.05C12.4167 10.55 12.0625 10.9458 11.9375 11.2375C11.8125 11.5292 11.75 12.05 11.75 12.8Z" fill="black"/>
</g>
<defs>
<clipPath id="clip0_252_140">
<rect width="24" height="24" fill="white"/>
</clipPath>
</defs>
</svg>
